<?xml version="1.0" standalone="no"?><!DOCTYPE svg PUBLIC "-//W3C//DTD SVG 1.1//EN" "http://www.w3.org/Graphics/SVG/1.1/DTD/svg11.dtd"><svg t="1591028512064" class="icon" viewBox="0 0 1024 1024" version="1.1" xmlns="http://www.w3.org/2000/svg" p-id="4839" xmlns:xlink="http://www.w3.org/1999/xlink" width="200" height="200"><defs><style type="text/css"></style></defs><path d="M512.01 81.858c-237.562 0-430.14 192.586-430.14 430.146 0 237.552 192.578 430.134 430.14 430.134 237.544 0 430.13-192.582 430.13-430.134 0-237.56-192.586-430.146-430.13-430.146z" fill="#EDF3FC" p-id="4840"></path><path d="M512.01 2C230.788 2 2 230.786 2 512.004 2 793.218 230.788 1022 512.01 1022 793.222 1022 1022 793.218 1022 512.004 1022 230.786 793.222 2 512.01 2z m0 1003.662c-272.212 0-493.664-221.454-493.664-493.658C18.346 239.796 239.8 18.338 512.01 18.338c272.202 0 493.646 221.458 493.646 493.666 0 272.204-221.446 493.658-493.646 493.658z" fill="#EDF3FC" p-id="4841"></path><path d="M608.426 836.2a55.978 55.978 0 0 1-40.692-40.692l-0.862-3.416-0.858 3.416a55.978 55.978 0 0 1-40.7 40.692l-3.41 0.858 3.41 0.858a55.966 55.966 0 0 1 40.7 40.696l0.858 3.416 0.862-3.416a55.97 55.97 0 0 1 40.692-40.696l3.422-0.858-3.422-0.858zM512.386 860.26a35.746 35.746 0 0 1-25.986-25.986l-0.55-2.182-0.546 2.182a35.748 35.748 0 0 1-25.99 25.986l-2.18 0.548 2.18 0.548a35.744 35.744 0 0 1 25.99 25.988l0.546 2.182 0.55-2.182a35.742 35.742 0 0 1 25.986-25.988l2.184-0.548-2.184-0.548z" fill="#5D8EF9" p-id="4842"></path><path d="M473.862 201.788a53.06 53.06 0 0 1-38.556-38.554l-0.804-3.236-0.812 3.236a53.02 53.02 0 0 1-38.558 38.554l-3.224 0.814 3.224 0.82a52.994 52.994 0 0 1 38.558 38.542l0.812 3.238 0.804-3.238a53.036 53.036 0 0 1 38.556-38.542l3.24-0.82-3.24-0.814zM358.04 230.506a35.424 35.424 0 0 1-25.748-25.746l-0.538-2.162-0.54 2.162a35.416 35.416 0 0 1-25.748 25.746l-2.156 0.544 2.156 0.546a35.408 35.408 0 0 1 25.748 25.736l0.54 2.162 0.538-2.162a35.424 35.424 0 0 1 25.748-25.736l2.164-0.546-2.164-0.544z" fill="#FFBE1B" p-id="4843"></path><path d="M854.168 507.106a48.914 48.914 0 0 1-35.532-35.534l-0.75-2.988-0.742 2.988a48.912 48.912 0 0 1-35.542 35.534l-2.978 0.746 2.978 0.746a48.9 48.9 0 0 1 35.542 35.532l0.742 2.986 0.75-2.986a48.896 48.896 0 0 1 35.532-35.532l2.992-0.746-2.992-0.746z" fill="#330D84" p-id="4844"></path><path d="M400.622 261.394c-89.598 0-162.24 72.634-162.24 162.244 0 89.606 72.642 162.242 162.24 162.242a161.596 161.596 0 0 0 68.438-15.138c13.644-43.854 45.412-79.696 86.52-98.85a162.208 162.208 0 0 0 7.296-48.256c0.002-89.608-72.642-162.242-162.254-162.242z" fill="#FFBE1B" p-id="4845"></path><path d="M400.622 301.854c-67.258 0-121.784 54.522-121.784 121.786 0 67.258 54.526 121.786 121.784 121.786 67.264 0 121.792-54.528 121.792-121.786 0-67.262-54.528-121.786-121.792-121.786z" fill="#FFE37B" p-id="4846"></path><path d="M449.728 431.236c-4.344-5.008-10.17-8.312-17.496-9.884a103.024 103.024 0 0 0 4.226-1.948c0.786-0.388 2.202-1.378 4.224-2.956 5.974-4.502 8.958-11.38 8.958-20.62 0-7.666-2.642-14.53-7.942-20.612-2.93-3.272-7.296-5.862-13.104-7.79a49.052 49.052 0 0 0-5.526-1.422v-15.03h-20.726v13.588h-13.902v-13.588h-20.734v13.588H345.016v22.306h16.898v73.528h-16.898v22.314H367.706v13.594h20.734v-13.594h13.902v13.594h20.726v-14.098c11.272-1.216 19.536-4.676 24.716-10.474 5.626-6.308 8.448-13.58 8.448-21.81 0.002-7.442-2.17-13.66-6.504-18.686z m-61.438-44.37h12.676c7.774 0 13.288 0.848 16.552 2.538 3.276 1.688 4.904 5.148 4.904 10.396 0 5.234-1.772 8.65-5.322 10.222-3.552 1.58-8.988 2.368-16.302 2.368h-12.508v-25.524z m35.074 70.74c-3.786 1.862-9.446 2.788-16.994 2.788h-18.078v-27.204h15.546c8.786 0 15.18 0.872 19.178 2.614 4.004 1.752 6.008 5.356 6.008 10.824 0 5.46-1.888 9.122-5.66 10.978z" fill="#FFFFFF" p-id="4847"></path><path d="M624.004 456.76c-89.6 0-162.242 72.634-162.242 162.248 0 89.606 72.642 162.24 162.242 162.24 89.61 0 162.252-72.634 162.252-162.24 0-89.614-72.642-162.248-162.252-162.248z" fill="#FFBE1B" p-id="4848"></path><path d="M624.004 497.22c-67.26 0-121.786 54.52-121.786 121.788 0 67.258 54.526 121.786 121.786 121.786 67.262 0 121.79-54.528 121.79-121.786 0-67.266-54.528-121.788-121.79-121.788z" fill="#FFE37B" p-id="4849"></path><path d="M659.326 616.38c-6.282-5.35-16.11-9.596-29.482-12.736h-0.524v-32.796c8.956 1.282 17.272 4.654 24.948 10.118l11.338-16.05c-11.398-7.79-23.492-12.152-36.286-13.084v-8.898h-11.164v8.722c-11.282 0.582-20.44 4.072-27.474 10.466-7.036 6.398-10.552 14.626-10.552 24.684 0 10.06 3.052 17.648 9.158 22.764 6.106 5.12 15.726 9.246 28.87 12.386v33.842c-10.352-1.628-20.41-6.686-30.178-15.176l-12.734 15.176c12.674 11.05 26.978 17.386 42.912 19.014v12.734h11.164v-12.56c11.864-0.58 21.398-4.07 28.61-10.466 7.208-6.394 10.816-14.68 10.816-24.858-0.002-10.172-3.142-17.934-9.422-23.282z m-41.17-15.878c-6.514-2.094-10.932-4.274-13.258-6.542-2.328-2.268-3.488-5.348-3.488-9.246 0-3.894 1.482-7.152 4.45-9.77 2.964-2.616 7.064-4.156 12.296-4.624v30.182z m24.422 50.938c-3.256 2.676-7.674 4.304-13.258 4.884v-31.4c6.978 2.092 11.746 4.334 14.304 6.716 2.556 2.384 3.838 5.612 3.838 9.682 0 4.072-1.628 7.444-4.884 10.118z" fill="#FFFFFF" p-id="4850"></path><path d="M798.742 396.852a10 10 0 0 0-13.43 4.43l-18.786 37.282c-14.442-53.51-45.496-101.846-88.614-137.428-47.978-39.592-108.72-61.4-171.036-61.4a10 10 0 0 0 0 20c113.23 0 212.406 77.324 240.776 185.682l-39.958-19.48a10 10 0 1 0-8.766 17.978l61.21 29.84a10 10 0 0 0 13.314-4.49l29.718-58.986a9.996 9.996 0 0 0-4.428-13.428z" fill="#330D84" p-id="4851"></path><path d="M514.246 778.772c-113.23 0-212.406-77.322-240.776-185.682l39.958 19.48a10.002 10.002 0 0 0 8.766-17.978l-61.21-29.84a10 10 0 0 0-13.314 4.49l-29.718 58.986a10 10 0 1 0 17.86 9l18.784-37.282c14.442 53.51 45.496 101.846 88.614 137.428 47.978 39.594 108.72 61.4 171.034 61.4a10 10 0 0 0 10-10 9.998 9.998 0 0 0-9.998-10.002z" fill="#5D8EF9" p-id="4852"></path></svg>